<?xml version="1.0" encoding="UTF-8"?>
<!-- Generator: Adobe Illustrator 16.0.3, SVG Export Plug-In . SVG Version: 6.00 Build 0)  -->
<!DOCTYPE svg PUBLIC "-//W3C//DTD SVG 1.1//EN" "http://www.w3.org/Graphics/SVG/1.1/DTD/svg11.dtd">
<svg version="1.1" id="Warstwa_1" xmlns="http://www.w3.org/2000/svg" xmlns:xlink="http://www.w3.org/1999/xlink" x="0px" y="0px" width="465px" height="103px" viewBox="0 0 465 103" enable-background="new 0 0 465 103" xml:space="preserve">
<g>
	<defs>
		<rect id="SVGID_1_" x="-63" y="-43.23" width="573.697" height="191.23"/>
	</defs>
	<clipPath id="SVGID_2_">
		<use xlink:href="#SVGID_1_" overflow="visible"/>
	</clipPath>
	<path clip-path="url(#SVGID_2_)" fill="#F28C00" d="M156.917,4.575v95.617h66.72c-9.754-3.663-21.65-15.239-22.968-34.8   c-12.447,4.078-25.81,4.819-37.513,4.819c-0.846,0-1.096-1.407,0.427-1.407c6.336,0,24.546-4.046,37.022-9.021   c0.838-15.47,11.221-30.528,21.829-30.528c10.928,0,9.294,22.155-13.999,33.167c0,26.455,17.932,37.478,21.387,37.769h22.711V4.575   H156.917z M227.825,25.198c-2.546,0-4.747-2.491-4.747-5.848c0-3.072,1.967-6.533,5.594-6.533c3.133,0,4.794,3.052,4.794,6.037   C233.467,21.959,231.415,25.198,227.825,25.198"/>
	<path clip-path="url(#SVGID_2_)" fill="#F28C00" d="M221.569,33.175c-3.396,0-10.66,6.912-12.644,22.565   C222.319,47.404,225.688,33.175,221.569,33.175"/>
	<path clip-path="url(#SVGID_2_)" d="M24.83,81.313c-0.759,0-2.613-0.167-3.792-0.337c-2.528-0.336-3.035-2.189-3.287-4.633   c-0.422-3.541-0.422-10.198-0.422-18.29v-14.83c0-13.147,0-15.506,0.17-18.202c0.167-2.95,0.841-4.382,3.117-4.803   c1.012-0.169,1.517-0.254,2.106-0.254c0.338,0,0.675-0.168,0.675-0.504c0-0.507-0.42-0.675-1.349-0.675   c-2.527,0-7.836,0.253-8.258,0.253s-5.73-0.253-8.51-0.253c-0.928,0-1.349,0.167-1.349,0.675c0,0.336,0.337,0.504,0.674,0.504   c0.59,0,1.685,0.085,2.613,0.337c1.853,0.422,2.696,1.855,2.865,4.72c0.168,2.696,0.168,5.055,0.168,18.202v14.83   c0,8.092,0,14.749-0.422,18.29c-0.336,2.443-0.758,4.297-2.443,4.633c-0.758,0.17-1.77,0.337-2.528,0.337   c-0.506,0-0.675,0.253-0.675,0.507c0,0.504,0.422,0.674,1.349,0.674c2.528,0,7.836-0.254,8.258-0.254s5.73,0.254,10.366,0.254   c0.926,0,1.348-0.254,1.348-0.674C25.505,81.566,25.336,81.313,24.83,81.313"/>
	<path clip-path="url(#SVGID_2_)" d="M68.341,47.021c3.78-2.978,8.567-8.684,8.567-15.594c0-4.213-3.034-12.641-16.854-12.641   c-3.877,0-9.524,0.253-11.547,0.253c-0.422,0-5.73-0.253-9.522-0.253c-0.927,0-1.349,0.167-1.349,0.675   c0,0.336,0.336,0.504,0.675,0.504c0.758,0,2.189,0.085,2.865,0.254c2.781,0.59,3.455,1.938,3.623,4.803   c0.17,2.696,0.17,5.055,0.17,18.202v14.83c0,8.092,0,14.749-0.422,18.29c-0.336,2.443-0.76,4.297-2.444,4.633   c-0.758,0.17-1.771,0.337-2.528,0.337c-0.506,0-0.674,0.253-0.674,0.507c0,0.504,0.42,0.674,1.349,0.674   c1.264,0,3.202-0.17,4.887-0.17c1.769-0.084,3.202-0.084,3.371-0.084c0.336,0,2.696,0.084,5.14,0.254   c2.443,0.083,5.141,0.251,6.068,0.251c14.408,0,21.488-9.354,21.488-18.368C81.203,54.515,74.577,48.959,68.341,47.021    M51.708,22.494c0-0.505,0.252-0.758,1.009-0.926c1.35-0.338,5.482-0.422,6.409-0.422c8.258,0,11.377,7.499,11.377,14.495   c0,3.455-1.264,6.489-3.034,8.511c-1.771,2.022-5.313,2.191-10.031,2.191c-3.118,0-4.634-0.252-5.14-0.337   c-0.421-0.169-0.59-0.337-0.59-0.927V22.494z M62.072,80.049c-1.516,0-5.139-0.167-7.415-1.262   c-2.613-1.265-2.613-2.443-2.866-6.574c-0.083-1.265-0.083-11.713-0.083-18.201v-4.805c0-0.421,0.169-0.589,0.505-0.589   c1.264,0,5.478,0,6.573,0.168c2.022,0.253,4.917,0.506,7.782,2.443c6.489,4.465,7.386,11.799,7.386,16.852   C73.955,77.605,66.624,80.049,62.072,80.049"/>
	<path clip-path="url(#SVGID_2_)" d="M127.471,71.028c-0.412,0-0.576,0.331-0.742,1.238c-0.577,3.383-1.569,5.036-3.714,5.941   c-2.146,0.91-5.777,0.91-7.923,0.91c-8.087,0-9.326-1.076-9.573-6.77c-0.083-1.732,0-11.306,0-14.112v-7.263   c0-0.331,0.166-0.578,0.579-0.578c1.401,0,9.573,0.166,11.803,0.412c3.218,0.331,3.96,1.734,4.29,2.888   c0.332,1.074,0.332,1.898,0.332,2.725c0,0.413,0.165,0.743,0.577,0.743c0.578,0,0.578-0.908,0.578-1.569   c0-0.577,0.165-3.631,0.33-5.282c0.249-2.723,0.66-4.125,0.66-4.622c0-0.494-0.165-0.659-0.412-0.659   c-0.331,0-0.662,0.412-1.239,1.073c-0.743,0.824-1.897,0.989-3.878,1.155c-1.898,0.166-12.05,0.166-13.124,0.166   c-0.412,0-0.495-0.248-0.495-0.824v-22.78c0-0.578,0.166-0.825,0.495-0.825c0.908,0,9.904,0.083,11.307,0.247   c4.458,0.497,5.283,1.485,5.86,2.807c0.412,0.99,0.495,2.393,0.495,2.97c0,0.661,0.165,1.074,0.66,1.074   c0.33,0,0.496-0.495,0.578-0.907c0.165-0.991,0.33-4.622,0.412-5.447c0.248-2.312,0.661-3.303,0.661-3.881   c0-0.412-0.082-0.741-0.33-0.741c-0.413,0-0.743,0.33-1.155,0.412c-0.661,0.166-1.98,0.329-3.55,0.413   c-1.899,0.083-18.322,0.083-18.9,0.083l-3.382-0.167c-1.816-0.081-4.044-0.081-5.943-0.081c-0.908,0-1.32,0.165-1.32,0.659   c0,0.331,0.33,0.496,0.66,0.496c0.742,0,2.146,0.081,2.807,0.248c2.722,0.577,3.382,1.898,3.548,4.704   c0.166,2.642,0.166,4.952,0.166,17.827v14.526c0,7.922,0,14.444-0.414,17.909c-0.33,2.391-0.743,4.209-2.395,4.539   c-0.742,0.167-1.732,0.33-2.474,0.33c-0.497,0-0.661,0.248-0.661,0.496c0,0.493,0.413,0.661,1.321,0.661   c1.239,0,3.137-0.168,4.787-0.168c1.733-0.081,3.136-0.081,3.3-0.081c1.239,0,3.22,0.081,6.439,0.249   c3.218,0.083,7.758,0.248,13.947,0.248c3.219,0,3.879,0,4.458-2.148c0.412-1.735,1.072-7.346,1.072-8.005   C127.967,71.688,127.967,71.028,127.471,71.028"/>
	<path clip-path="url(#SVGID_2_)" d="M278.752,20.793c0.142,0,0.401,0.023,0.637,0.071c0.449,0.094,0.613,0.401,0.661,1.086   c0.047,0.637,0.047,1.205,0.047,4.321v3.542c0,1.938-0.023,3.519-0.117,4.345c-0.072,0.591-0.142,0.969-0.544,1.063   c-0.189,0.047-0.449,0.095-0.638,0.095c-0.119,0-0.166,0.094-0.166,0.165c0,0.118,0.119,0.166,0.331,0.166   c0.637,0,1.936-0.071,2.055-0.071c0.095,0,1.44,0.071,2.597,0.071c0.236,0,0.33-0.071,0.33-0.166c0-0.071-0.046-0.165-0.164-0.165   c-0.188,0-0.638-0.048-0.945-0.095c-0.613-0.095-0.686-0.473-0.755-1.063c-0.095-0.826-0.095-2.407-0.095-4.345v-3.542   c0-3.117,0-3.684,0.023-4.321c0.047-0.709,0.166-0.992,0.731-1.11c0.237-0.047,0.378-0.047,0.521-0.047   c0.07,0,0.165-0.095,0.165-0.166c0-0.118-0.095-0.165-0.33-0.165c-0.638,0-1.984,0.047-2.079,0.047   c-0.119,0-1.417-0.047-2.102-0.047c-0.236,0-0.33,0.047-0.33,0.165C278.586,20.698,278.657,20.793,278.752,20.793"/>
	<path clip-path="url(#SVGID_2_)" d="M287.11,35.646c0.944,0,1.819-0.071,2.007-0.071c0.19,0,1.015,0.071,2.196,0.071   c0.236,0,0.378-0.047,0.378-0.166c0-0.094-0.071-0.165-0.166-0.165c-0.189,0-0.662-0.024-1.039-0.119   c-0.568-0.142-0.755-0.638-0.804-2.292l-0.236-9.469c0.639,0.708,2.976,3.166,5.384,5.692c2.196,2.29,5.195,5.243,5.408,5.431   c1.159,1.063,1.37,1.228,1.583,1.228c0.142,0,0.165-0.118,0.165-1.44l0.047-11.76c0-1.205,0.047-1.605,0.731-1.747   c0.237-0.047,0.402-0.047,0.496-0.047c0.142,0,0.237-0.118,0.237-0.189c0-0.117-0.166-0.141-0.377-0.141   c-0.851,0-1.536,0.047-1.772,0.047c-0.237,0-1.229-0.047-2.173-0.047c-0.235,0-0.4,0.023-0.4,0.141   c0,0.071,0.024,0.189,0.165,0.189c0.167,0,0.638,0.023,1.014,0.095c0.639,0.118,0.757,0.566,0.78,1.865l0.212,10.059   c-0.639-0.662-2.858-3.045-4.913-5.171c-3.21-3.306-6.232-6.517-6.563-6.848c-0.212-0.213-0.567-0.613-0.802-0.613   c-0.167,0-0.284,0.212-0.284,1.015v11.5c0,1.818-0.072,2.361-0.59,2.503c-0.308,0.095-0.685,0.119-0.851,0.119   c-0.094,0-0.165,0.071-0.165,0.165C286.779,35.623,286.897,35.646,287.11,35.646"/>
	<path clip-path="url(#SVGID_2_)" d="M306.732,35.363c0.85,0.401,2.055,0.542,3.022,0.542c1.134,0,2.432-0.141,3.307-0.708   c1.488-0.968,1.936-2.243,1.936-3.424c0-1.724-0.874-3.117-3.4-4.841l-0.591-0.4c-2.054-1.394-2.691-2.126-2.691-3.401   c0-1.417,1.251-2.173,2.763-2.173c1.865,0,2.55,0.756,2.692,0.992c0.117,0.212,0.283,0.755,0.307,0.992   c0.024,0.165,0.047,0.26,0.19,0.26c0.141,0,0.164-0.141,0.164-0.449c0-1.37,0.094-2.031,0.094-2.125   c0-0.119-0.046-0.142-0.211-0.142c-0.166,0-0.331,0-0.732-0.094c-0.497-0.119-1.322-0.237-2.149-0.237   c-2.74,0-4.604,1.417-4.604,3.778c0,1.394,0.731,2.621,2.975,4.298l0.944,0.708c1.843,1.37,2.621,2.054,2.621,3.496   c0,1.511-1.063,2.667-3.117,2.667c-1.394,0-2.952-0.519-3.282-1.983c-0.071-0.284-0.071-0.567-0.071-0.732s-0.07-0.236-0.188-0.236   c-0.118,0-0.165,0.119-0.165,0.331c-0.024,0.331-0.118,1.133-0.118,2.126C306.425,35.151,306.448,35.222,306.732,35.363"/>
	<path clip-path="url(#SVGID_2_)" d="M317.852,22.895c0.095,0,0.166-0.024,0.211-0.188c0.073-0.142,0.096-0.283,0.331-0.638   c0.307-0.472,0.804-0.614,2.102-0.637l3-0.048v8.43c0,1.937,0,3.52-0.095,4.345c-0.071,0.59-0.19,0.992-0.614,1.086   c-0.189,0.047-0.425,0.095-0.614,0.095c-0.118,0-0.166,0.07-0.166,0.141c0,0.118,0.094,0.166,0.331,0.166   c0.614,0,2.055-0.071,2.148-0.071c0.118,0,1.441,0.071,2.574,0.071c0.236,0,0.331-0.071,0.331-0.166   c0-0.071-0.022-0.165-0.166-0.165c-0.188,0-0.661-0.047-0.944-0.095c-0.638-0.095-0.731-0.473-0.804-1.063   c-0.094-0.826-0.094-2.409-0.094-4.345v-8.43l2.597,0.048c1.984,0.046,2.434,0.495,2.503,1.109l0.025,0.212   c0.023,0.284,0.071,0.354,0.165,0.354s0.189-0.094,0.189-0.259c0-0.237,0.071-1.677,0.071-2.291c0-0.118,0-0.235-0.094-0.235   c-0.094,0-0.283,0.046-0.59,0.095c-0.331,0.047-0.804,0.093-1.489,0.093h-7.84c-0.236,0-1.038-0.023-1.629-0.093   c-0.567-0.071-0.78-0.236-0.921-0.236c-0.071,0-0.166,0.259-0.212,0.377c-0.023,0.166-0.449,1.96-0.449,2.172   C317.71,22.848,317.805,22.895,317.852,22.895"/>
	<path clip-path="url(#SVGID_2_)" d="M331.712,20.793c0.166,0,0.566,0.095,0.874,0.284c0.376,0.26,0.873,0.709,1.369,1.464   c0.708,1.063,3.518,5.526,3.684,5.833c0.306,0.566,0.447,0.967,0.447,2.054v1.723c0,0.333,0,1.182-0.046,2.008   c-0.048,0.591-0.189,0.969-0.615,1.063c-0.188,0.047-0.424,0.095-0.614,0.095c-0.118,0-0.166,0.094-0.166,0.165   c0,0.118,0.095,0.166,0.331,0.166c0.614,0,1.936-0.071,2.031-0.071c0.118,0,1.464,0.071,2.62,0.071   c0.214,0,0.331-0.071,0.331-0.166c0-0.071-0.047-0.165-0.164-0.165c-0.188,0-0.661-0.048-0.944-0.095   c-0.614-0.095-0.756-0.473-0.805-1.063c-0.07-0.826-0.07-1.675-0.07-2.008v-1.723c0-0.661-0.094-1.299,0.261-2.007   c0.425-0.851,3.353-5.574,4.038-6.377c0.449-0.542,0.637-0.755,1.039-0.991c0.33-0.188,0.732-0.26,0.969-0.26   c0.165,0,0.259-0.118,0.259-0.213c0-0.07-0.118-0.117-0.259-0.117c-0.402,0-1.891,0.047-2.032,0.047   c-0.165,0-0.897-0.047-1.44-0.047c-0.213,0-0.33,0.047-0.33,0.117c0,0.095,0.117,0.189,0.307,0.236   c0.236,0.071,0.331,0.236,0.331,0.52c0,0.259-0.095,0.589-0.354,1.039c-0.377,0.661-2.976,4.958-3.4,5.809l-3.777-6.259   c-0.143-0.258-0.284-0.495-0.284-0.778c0-0.165,0.094-0.26,0.259-0.331c0.19-0.07,0.331-0.142,0.331-0.213   c0-0.094-0.047-0.141-0.284-0.141c-0.803,0-1.652,0.047-1.794,0.047c-0.094,0-1.653-0.047-2.055-0.047   c-0.188,0-0.26,0.047-0.26,0.141C331.5,20.698,331.593,20.793,331.712,20.793"/>
	<path clip-path="url(#SVGID_2_)" d="M346.965,22.895c0.094,0,0.165-0.024,0.213-0.188c0.07-0.142,0.094-0.283,0.33-0.638   c0.307-0.472,0.803-0.614,2.101-0.637l2.999-0.048v8.43c0,1.937,0,3.52-0.094,4.345c-0.07,0.59-0.189,0.992-0.614,1.086   c-0.188,0.047-0.424,0.095-0.613,0.095c-0.118,0-0.165,0.07-0.165,0.141c0,0.118,0.094,0.166,0.329,0.166   c0.615,0,2.055-0.071,2.15-0.071c0.117,0,1.44,0.071,2.574,0.071c0.235,0,0.33-0.071,0.33-0.166c0-0.071-0.024-0.165-0.165-0.165   c-0.189,0-0.661-0.047-0.944-0.095c-0.638-0.095-0.733-0.473-0.804-1.063c-0.094-0.826-0.094-2.409-0.094-4.345v-8.43l2.598,0.048   c1.982,0.046,2.432,0.495,2.503,1.109l0.022,0.212c0.024,0.284,0.072,0.354,0.167,0.354c0.094,0,0.188-0.094,0.188-0.259   c0-0.237,0.069-1.677,0.069-2.291c0-0.118,0-0.235-0.093-0.235c-0.095,0-0.284,0.046-0.591,0.095   c-0.331,0.047-0.803,0.093-1.487,0.093h-7.842c-0.234,0-1.038-0.023-1.629-0.093c-0.566-0.071-0.779-0.236-0.92-0.236   c-0.07,0-0.166,0.259-0.213,0.377c-0.023,0.166-0.449,1.96-0.449,2.172C346.822,22.848,346.918,22.895,346.965,22.895"/>
	<path clip-path="url(#SVGID_2_)" d="M361.697,20.793c0.19,0,0.545,0.023,0.709,0.047c0.684,0.094,0.803,0.472,0.851,1.11   c0.048,0.637,0.048,1.205,0.048,4.321v2.952c0,2.927,0.803,4.321,1.817,5.266c1.465,1.37,3.636,1.416,4.321,1.416   c1.228,0,2.834-0.165,4.345-1.464c1.653-1.416,1.938-3.849,1.938-6.021v-2.149c0-3.117-0.024-3.684,0.021-4.321   c0.048-0.662,0.165-0.992,0.732-1.11c0.26-0.047,0.38-0.047,0.521-0.047c0.095,0,0.165-0.095,0.165-0.166   c0-0.118-0.094-0.165-0.332-0.165c-0.613,0-1.605,0.047-1.746,0.047c-0.118,0-1.322-0.047-2.244-0.047   c-0.236,0-0.33,0.047-0.33,0.165c0,0.071,0.07,0.166,0.164,0.166c0.189,0,0.544,0.023,0.71,0.047   c0.685,0.094,0.803,0.472,0.827,1.11c0.022,0.637,0.046,1.205,0.046,4.321v2.526c0,2.054-0.213,3.708-1.181,4.865   c-0.709,0.85-1.936,1.417-3.212,1.417c-1.18,0-2.079-0.166-3.092-1.086c-0.898-0.803-1.536-2.007-1.536-4.912v-2.811   c0-3.117,0-3.684,0.047-4.321c0.047-0.662,0.166-1.016,0.71-1.11c0.258-0.047,0.376-0.047,0.518-0.047   c0.095,0,0.188-0.095,0.188-0.166c0-0.118-0.116-0.165-0.353-0.165c-0.615,0-1.913,0.047-2.103,0.047   c-0.188,0-1.439-0.047-2.386-0.047c-0.235,0-0.329,0.047-0.329,0.165C361.533,20.698,361.627,20.793,361.697,20.793"/>
	<path clip-path="url(#SVGID_2_)" d="M378.651,22.895c0.094,0,0.166-0.024,0.212-0.188c0.071-0.142,0.096-0.283,0.332-0.638   c0.307-0.472,0.803-0.614,2.101-0.637l2.999-0.048v8.43c0,1.937,0,3.52-0.094,4.345c-0.072,0.59-0.188,0.992-0.615,1.086   c-0.188,0.047-0.424,0.095-0.612,0.095c-0.12,0-0.167,0.07-0.167,0.141c0,0.118,0.094,0.166,0.33,0.166   c0.616,0,2.055-0.071,2.151-0.071c0.117,0,1.44,0.071,2.574,0.071c0.235,0,0.329-0.071,0.329-0.166   c0-0.071-0.024-0.165-0.165-0.165c-0.188,0-0.66-0.047-0.945-0.095c-0.637-0.095-0.731-0.473-0.804-1.063   c-0.093-0.826-0.093-2.409-0.093-4.345v-8.43l2.599,0.048c1.982,0.046,2.432,0.495,2.503,1.109l0.022,0.212   c0.024,0.284,0.071,0.354,0.166,0.354c0.094,0,0.188-0.094,0.188-0.259c0-0.237,0.073-1.677,0.073-2.291   c0-0.118,0-0.235-0.096-0.235c-0.095,0-0.284,0.046-0.59,0.095c-0.332,0.047-0.804,0.093-1.489,0.093h-7.84   c-0.236,0-1.039-0.023-1.629-0.093c-0.568-0.071-0.779-0.236-0.921-0.236c-0.069,0-0.165,0.259-0.212,0.377   c-0.024,0.166-0.448,1.96-0.448,2.172C378.511,22.848,378.604,22.895,378.651,22.895"/>
	<path clip-path="url(#SVGID_2_)" d="M285.765,50.663c1.063-0.945,2.101-1.937,2.101-3.519c0-1.062-0.897-3.069-4.368-3.069   c-0.968,0-1.938,0.046-2.434,0.046c-0.116,0-1.463-0.046-2.407-0.046c-0.236,0-0.33,0.046-0.33,0.165   c0,0.071,0.094,0.118,0.164,0.118c0.189,0,0.544,0.024,0.708,0.047c0.685,0.094,0.803,0.472,0.851,1.157   c0.047,0.637,0.047,1.204,0.047,4.321v3.542c0,1.936,0,3.519-0.117,4.345c-0.096,0.59-0.142,1.04-0.544,1.11   c-0.189,0.024-0.449,0.094-0.638,0.094c-0.119,0-0.166,0.048-0.166,0.119c0,0.117,0.119,0.165,0.331,0.165   c0.331,0,0.826-0.023,1.252-0.048c0.425,0,0.803-0.022,0.849-0.022c0.096,0,0.687,0.022,1.348,0.047   c0.66,0.047,1.417,0.07,1.793,0.07c3.542,0,5.22-2.219,5.22-4.462C289.425,52.575,287.347,51.136,285.765,50.663 M281.892,45.019   c0-0.118,0.07-0.166,0.259-0.213c0.332-0.07,0.828-0.094,1.064-0.094c2.079,0,2.928,1.7,2.928,3.234   c0,0.968-0.354,1.654-0.804,2.149c-0.424,0.473-0.873,0.52-2.03,0.52c-0.779,0-1.158-0.07-1.275-0.094   c-0.095-0.023-0.142-0.07-0.142-0.212V45.019z M284.442,58.598c-0.378,0-1.251-0.024-1.818-0.284   c-0.637-0.307-0.637-0.544-0.708-1.512c-0.023-0.306-0.023-2.715-0.023-4.273v-1.11c0-0.095,0.047-0.142,0.118-0.142   c0.33,0,1.37,0,1.629,0.047c0.496,0.095,1.157,0.071,1.866,0.521c1.628,1.038,1.983,2.762,1.983,3.66   C287.488,58.077,285.811,58.598,284.442,58.598"/>
	<path clip-path="url(#SVGID_2_)" d="M294.334,59.258c0.191,0,0.309-0.048,0.309-0.165c0-0.096-0.047-0.167-0.212-0.167h-0.189   c-0.355,0-0.709-0.14-0.709-0.542c0-0.354,0.118-0.851,0.308-1.347l1.18-3.211c0.047-0.119,0.118-0.164,0.213-0.164h4.794   c0.118,0,0.142,0.022,0.188,0.117l1.866,4.604c0.142,0.33-0.072,0.496-0.188,0.542c-0.094,0.048-0.142,0.048-0.142,0.143   c0,0.119,0.331,0.119,0.732,0.141c1.439,0.048,2.975,0.048,3.283,0.048c0.235,0,0.471-0.048,0.471-0.165   c0-0.119-0.141-0.167-0.26-0.167c-0.211,0-0.52-0.022-0.826-0.117c-0.448-0.142-1.016-0.402-1.771-2.195   c-1.275-3.047-4.605-11.335-4.983-12.186c-0.212-0.45-0.283-0.731-0.496-0.731c-0.142,0-0.237,0.117-0.496,0.778l-4.888,12.563   c-0.401,1.016-0.802,1.724-1.747,1.842c-0.166,0.024-0.472,0.046-0.614,0.046c-0.095,0-0.189,0.071-0.189,0.167   c0,0.117,0.141,0.165,0.401,0.165c0.851,0,1.89-0.07,2.103-0.07C292.707,59.188,293.84,59.258,294.334,59.258 M295.445,52.693   l1.937-5.501c0.117-0.307,0.237-0.307,0.355,0l2.052,5.501c0.024,0.095,0.024,0.143-0.07,0.143h-4.203   C295.445,52.835,295.422,52.788,295.445,52.693"/>
	<path clip-path="url(#SVGID_2_)" d="M311.407,59.305c0.898,0.048,2.007,0.118,2.906,0.118c3.541,0,5.407-1.393,6.305-2.314   c1.156-1.18,2.242-3.117,2.242-5.644c0-2.384-0.991-4.062-2.031-5.101c-2.456-2.48-6.258-2.291-8.335-2.291   c-1.229,0-2.552,0.047-2.787,0.047c-0.118,0-1.464-0.047-2.411-0.047c-0.233,0-0.329,0.047-0.329,0.166   c0,0.071,0.095,0.166,0.164,0.166c0.19,0,0.544,0.023,0.709,0.047c0.685,0.094,0.803,0.425,0.85,1.11   c0.047,0.638,0.047,1.205,0.047,4.322v3.542c0,1.936,0,3.519-0.117,4.345c-0.095,0.59-0.141,0.969-0.543,1.063   c-0.19,0.047-0.449,0.094-0.638,0.094c-0.117,0-0.165,0.096-0.165,0.167c0,0.117,0.119,0.165,0.33,0.165   c0.331,0,0.828-0.023,1.252-0.048c0.426,0,0.804-0.022,0.851-0.022C309.802,59.188,310.51,59.235,311.407,59.305 M310.628,45.349   c0-0.236,0.071-0.33,0.26-0.4c0.188-0.071,0.85-0.143,1.251-0.143c2.48,0,4.771,0.26,6.73,2.244c0.85,0.85,1.959,2.48,1.959,5.029   c0,1.843-0.542,3.755-1.628,4.77c-1.252,1.181-2.953,1.819-4.865,1.819c-2.458,0-3.189-0.425-3.448-0.802   c-0.166-0.213-0.213-0.946-0.236-1.441c-0.024-0.378-0.024-2.244-0.024-4.369V45.349z"/>
	<path clip-path="url(#SVGID_2_)" d="M327.793,59.094c0-0.096-0.048-0.167-0.211-0.167h-0.19c-0.355,0-0.708-0.14-0.708-0.542   c0-0.354,0.119-0.851,0.307-1.347l1.182-3.211c0.046-0.119,0.118-0.164,0.212-0.164h4.793c0.12,0,0.143,0.022,0.189,0.117   l1.865,4.604c0.142,0.33-0.071,0.496-0.189,0.542c-0.094,0.048-0.14,0.048-0.14,0.143c0,0.119,0.33,0.119,0.732,0.141   c1.441,0.048,2.975,0.048,3.283,0.048c0.233,0,0.47-0.048,0.47-0.165c0-0.119-0.141-0.167-0.258-0.167   c-0.212,0-0.52-0.022-0.826-0.117c-0.448-0.142-1.017-0.402-1.771-2.195c-1.274-3.047-4.604-11.335-4.982-12.186   c-0.213-0.45-0.285-0.731-0.495-0.731c-0.143,0-0.237,0.117-0.496,0.778l-4.89,12.563c-0.402,1.016-0.802,1.724-1.746,1.842   c-0.165,0.024-0.474,0.046-0.614,0.046c-0.096,0-0.188,0.071-0.188,0.167c0,0.117,0.142,0.165,0.4,0.165   c0.85,0,1.889-0.07,2.102-0.07c0.236,0,1.369,0.07,1.864,0.07C327.676,59.258,327.793,59.21,327.793,59.094 M328.597,52.693   l1.936-5.501c0.119-0.307,0.236-0.307,0.355,0l2.053,5.501c0.024,0.095,0.024,0.143-0.07,0.143h-4.205   C328.597,52.835,328.573,52.788,328.597,52.693"/>
	<path clip-path="url(#SVGID_2_)" d="M353.318,58.171c1.158,1.064,1.369,1.229,1.583,1.229c0.142,0,0.165-0.118,0.165-1.44   l0.047-11.76c0-1.204,0.047-1.606,0.732-1.748c0.236-0.047,0.401-0.047,0.496-0.047c0.142,0,0.237-0.119,0.237-0.189   c0-0.118-0.166-0.142-0.379-0.142c-0.85,0-1.536,0.046-1.771,0.046c-0.238,0-1.229-0.046-2.173-0.046   c-0.235,0-0.402,0.023-0.402,0.142c0,0.07,0.024,0.189,0.167,0.189c0.164,0,0.638,0.023,1.015,0.094   c0.638,0.119,0.755,0.568,0.778,1.866l0.213,10.06c-0.637-0.661-2.858-3.046-4.912-5.172c-3.211-3.306-6.233-6.517-6.564-6.848   c-0.212-0.213-0.566-0.614-0.802-0.614c-0.165,0-0.284,0.212-0.284,1.015v11.5c0,1.818-0.072,2.362-0.59,2.504   c-0.307,0.095-0.686,0.117-0.852,0.117c-0.092,0-0.165,0.071-0.165,0.167c0,0.141,0.118,0.165,0.331,0.165   c0.945,0,1.818-0.07,2.007-0.07c0.19,0,1.017,0.07,2.196,0.07c0.236,0,0.379-0.048,0.379-0.165c0-0.096-0.072-0.167-0.166-0.167   c-0.189,0-0.66-0.022-1.038-0.117c-0.569-0.142-0.757-0.639-0.804-2.291l-0.236-9.469c0.638,0.708,2.975,3.165,5.385,5.691   C350.107,55.031,353.107,57.983,353.318,58.171"/>
	<path clip-path="url(#SVGID_2_)" d="M346.801,42.186c0.779-0.331,2.434-0.875,3.59-0.993c0.402-0.047,0.638,0,0.71,0   c0.093,0,0.211-0.071,0.093-0.283c-0.259-0.472-0.425-0.803-0.59-1.04c-0.119-0.165-0.166-0.212-0.236-0.212   c-0.118,0-0.26,0.071-0.66,0.306c-0.166,0.096-2.362,1.418-3.212,2.008c-0.12,0.071-0.167,0.118-0.167,0.188   c0,0.095,0.072,0.143,0.12,0.143C346.495,42.304,346.636,42.256,346.801,42.186"/>
	<path clip-path="url(#SVGID_2_)" d="M287.702,80.154c-0.119,0-0.166,0.072-0.213,0.308c-0.118,0.802-0.401,1.157-0.944,1.392   c-0.544,0.213-1.536,0.213-2.078,0.213c-2.054,0-2.432-0.258-2.479-1.604c-0.025-0.401,0-2.74,0-3.424V75.36   c0-0.071,0.023-0.142,0.141-0.142c0.354,0,2.574,0.023,3.142,0.096c0.802,0.094,0.991,0.33,1.063,0.612   c0.095,0.261,0.095,0.474,0.095,0.663c0,0.118,0.047,0.188,0.141,0.188c0.142,0,0.189-0.213,0.189-0.377   c0-0.143,0.046-0.896,0.094-1.299c0.047-0.662,0.166-0.993,0.166-1.11c0-0.118-0.048-0.165-0.118-0.165   c-0.071,0-0.166,0.118-0.308,0.26c-0.212,0.212-0.52,0.234-1.015,0.283c-0.472,0.047-3.21,0.047-3.472,0.047   c-0.117,0-0.117-0.069-0.117-0.213v-5.455c0-0.142,0.023-0.212,0.117-0.212c0.236,0,2.645,0.024,3,0.07   c1.133,0.142,1.346,0.284,1.487,0.616c0.095,0.235,0.119,0.565,0.119,0.707c0,0.166,0.048,0.26,0.166,0.26   c0.093,0,0.165-0.117,0.188-0.212c0.047-0.235,0.095-1.133,0.117-1.323c0.049-0.566,0.167-0.802,0.167-0.944   c0-0.094-0.024-0.188-0.095-0.188c-0.094,0-0.188,0.07-0.284,0.094c-0.166,0.024-0.542,0.094-0.944,0.118   c-0.472,0.022-4.817,0-4.96,0c-0.116,0-1.463-0.047-2.407-0.047c-0.236,0-0.331,0.047-0.331,0.166c0,0.071,0.095,0.167,0.165,0.167   c0.189,0,0.544,0.02,0.709,0.045c0.685,0.094,0.803,0.426,0.85,1.111c0.046,0.637,0.046,1.204,0.046,4.322v3.542   c0,1.935,0,3.519-0.116,4.344c-0.096,0.591-0.142,0.992-0.544,1.063c-0.189,0.023-0.449,0.094-0.638,0.094   c-0.119,0-0.166,0.096-0.166,0.168c0,0.116,0.119,0.163,0.331,0.163c0.331,0,0.803-0.024,1.204-0.047   c0.449-0.022,0.851-0.022,0.896-0.022c0.308,0,0.851,0,1.725,0.045c0.85,0.024,2.054,0.072,3.613,0.072   c0.804,0,1.015,0,1.158-0.521c0.118-0.424,0.284-1.794,0.284-1.935C287.844,80.32,287.819,80.154,287.702,80.154"/>
	<path clip-path="url(#SVGID_2_)" d="M296.626,67.687c-1.229,0-2.55,0.047-2.786,0.047c-0.119,0-1.464-0.047-2.41-0.047   c-0.235,0-0.33,0.047-0.33,0.166c0,0.071,0.095,0.167,0.166,0.167c0.189,0,0.544,0.02,0.709,0.045   c0.684,0.094,0.803,0.426,0.85,1.111c0.047,0.637,0.047,1.204,0.047,4.322v3.542c0,1.935,0,3.519-0.119,4.344   c-0.095,0.591-0.142,0.968-0.543,1.063c-0.189,0.047-0.449,0.094-0.637,0.094c-0.118,0-0.166,0.096-0.166,0.168   c0,0.116,0.118,0.163,0.331,0.163c0.331,0,0.826-0.024,1.251-0.047c0.426,0,0.803-0.022,0.851-0.022   c0.094,0,0.803,0.045,1.699,0.117c0.897,0.047,2.008,0.118,2.905,0.118c3.543,0,5.408-1.394,6.305-2.314   c1.157-1.183,2.244-3.118,2.244-5.644c0-2.385-0.992-4.063-2.031-5.101C302.505,67.497,298.704,67.687,296.626,67.687    M303.332,80.462c-1.251,1.181-2.952,1.818-4.864,1.818c-2.456,0-3.188-0.427-3.448-0.802c-0.164-0.215-0.213-0.947-0.236-1.441   c-0.024-0.379-0.024-2.244-0.024-4.369v-6.707c0-0.235,0.071-0.331,0.26-0.401c0.189-0.07,0.85-0.142,1.251-0.142   c2.48,0,4.771,0.26,6.731,2.245c0.85,0.849,1.959,2.479,1.959,5.029C304.962,77.534,304.418,79.445,303.332,80.462"/>
	<path clip-path="url(#SVGID_2_)" d="M324.205,67.687c-0.614,0-1.605,0.047-1.748,0.047c-0.117,0-1.322-0.047-2.243-0.047   c-0.235,0-0.331,0.047-0.331,0.166c0,0.071,0.07,0.167,0.165,0.167c0.188,0,0.543,0.02,0.708,0.045   c0.685,0.094,0.803,0.472,0.827,1.111c0.023,0.637,0.046,1.204,0.046,4.322v2.524c0,2.055-0.211,3.711-1.18,4.868   c-0.708,0.848-1.936,1.416-3.212,1.416c-1.181,0-2.078-0.166-3.093-1.088c-0.898-0.803-1.536-2.008-1.536-4.91v-2.811   c0-3.118,0-3.685,0.048-4.322c0.046-0.661,0.165-1.017,0.708-1.111c0.259-0.045,0.377-0.045,0.519-0.045   c0.095,0,0.189-0.095,0.189-0.167c0-0.119-0.118-0.166-0.354-0.166c-0.614,0-1.913,0.047-2.101,0.047   c-0.19,0-1.442-0.047-2.386-0.047c-0.237,0-0.33,0.047-0.33,0.166c0,0.071,0.093,0.167,0.165,0.167c0.189,0,0.544,0.02,0.709,0.045   c0.685,0.094,0.802,0.472,0.851,1.111c0.047,0.637,0.047,1.204,0.047,4.322v2.952c0,2.927,0.802,4.318,1.818,5.263   c1.463,1.371,3.636,1.418,4.321,1.418c1.228,0,2.834-0.164,4.345-1.463c1.654-1.416,1.938-3.849,1.938-6.021v-2.148   c0-3.118-0.024-3.685,0.023-4.322c0.048-0.661,0.165-0.992,0.732-1.111c0.26-0.045,0.379-0.045,0.519-0.045   c0.095,0,0.167-0.095,0.167-0.167C324.537,67.733,324.442,67.687,324.205,67.687"/>
	<path clip-path="url(#SVGID_2_)" d="M355.894,82.539c-0.212,0-0.521-0.023-0.827-0.117c-0.448-0.142-1.017-0.402-1.772-2.195   c-1.273-3.047-4.604-11.336-4.981-12.188c-0.211-0.447-0.285-0.729-0.495-0.729c-0.142,0-0.238,0.117-0.497,0.778l-4.888,12.563   c-0.319,0.808-0.645,1.416-1.237,1.692c-0.082-0.026-0.166-0.056-0.25-0.087c-0.991-0.402-1.227-0.66-2.974-2.219   c-0.851-0.779-5.171-5.102-5.715-5.69c0.448-0.497,3.991-3.899,4.511-4.37c0.921-0.875,1.321-1.323,2.173-1.701   c0.4-0.166,0.85-0.282,1.156-0.282c0.164,0,0.213-0.07,0.213-0.167c0-0.094-0.096-0.141-0.307-0.141   c-0.521,0-1.891,0.047-2.008,0.047c-0.495,0-1.135-0.047-1.56-0.047c-0.14,0-0.236,0.047-0.236,0.141   c0,0.072,0.072,0.167,0.189,0.191c0.167,0.02,0.26,0.139,0.26,0.399c0,0.33-0.544,0.849-1.134,1.439   c-0.779,0.805-4.486,4.465-4.818,4.842h-0.092v-1.203c0-3.118,0-3.685,0.045-4.322c0.047-0.709,0.19-0.992,0.733-1.111   c0.259-0.045,0.376-0.045,0.518-0.045c0.095,0,0.166-0.095,0.166-0.167c0-0.119-0.094-0.166-0.331-0.166   c-0.614,0-1.864,0.047-2.054,0.047c-0.118,0-1.393-0.047-2.338-0.047c-0.234,0-0.331,0.047-0.331,0.166   c0,0.071,0.097,0.167,0.166,0.167c0.19,0,0.544,0.02,0.709,0.045c0.685,0.094,0.803,0.426,0.85,1.111   c0.048,0.637,0.048,1.204,0.048,4.322v3.542c0,1.935,0,3.519-0.119,4.344c-0.095,0.591-0.142,0.968-0.544,1.063   c-0.188,0.047-0.449,0.094-0.638,0.094c-0.117,0-0.165,0.096-0.165,0.168c0,0.116,0.119,0.163,0.331,0.163   c0.638,0,1.889-0.069,2.055-0.069c0.166,0,1.416,0.069,2.432,0.069c0.237,0,0.331-0.069,0.331-0.163   c0-0.072-0.047-0.168-0.165-0.168c-0.188,0-0.52-0.047-0.803-0.094c-0.639-0.096-0.732-0.473-0.804-1.063   c-0.092-0.825-0.092-2.409-0.092-4.344v-1.96h0.092c0.993,1.18,5.362,5.786,6.307,6.518c0.896,0.685,1.439,1.134,2.526,1.228   c0.201,0.02,0.387,0.03,0.578,0.037c0.051,0.005,0.109,0.01,0.175,0.01c0.066,0,0.134-0.002,0.2-0.003   c0.15,0.001,0.307,0.003,0.487,0.003h1.062c0.217,0,0.328-0.028,0.389-0.069c0.286,0.005,1.352,0.069,1.83,0.069   c0.19,0,0.307-0.047,0.307-0.163c0-0.097-0.047-0.168-0.211-0.168h-0.189c-0.354,0-0.709-0.143-0.709-0.543   c0-0.354,0.119-0.85,0.307-1.346l1.182-3.212c0.048-0.118,0.117-0.165,0.213-0.165h4.793c0.119,0,0.141,0.024,0.188,0.117   l1.866,4.605c0.141,0.331-0.071,0.496-0.189,0.543c-0.094,0.047-0.141,0.047-0.141,0.143c0,0.119,0.33,0.119,0.732,0.142   c1.44,0.047,2.975,0.047,3.283,0.047c0.233,0,0.47-0.047,0.47-0.163C356.151,82.586,356.01,82.539,355.894,82.539 M349.635,76.448   h-4.204c-0.069,0-0.095-0.048-0.069-0.142l1.936-5.503c0.119-0.308,0.235-0.308,0.355,0l2.053,5.503   C349.73,76.4,349.73,76.448,349.635,76.448"/>
	<path clip-path="url(#SVGID_2_)" d="M370.249,79.233c-0.142,0-0.165,0.07-0.214,0.284c-0.07,0.377-0.353,1.227-0.802,1.677   c-0.827,0.825-1.866,0.944-3.424,0.944c-4.439,0-7.486-3.426-7.486-7.273c0-2.031,0.33-3.825,1.866-5.243   c0.732-0.686,2.006-1.392,4.675-1.392c1.843,0,3.354,0.496,4.087,1.11c0.541,0.423,0.873,1.228,0.873,2.007   c0,0.283,0.023,0.425,0.164,0.425c0.119,0,0.212-0.119,0.236-0.425c0.024-0.285,0.024-1.394,0.048-2.056   c0.048-0.731,0.094-0.967,0.094-1.134c0-0.119-0.046-0.21-0.259-0.21c-0.685-0.024-1.347-0.166-2.126-0.308   c-1.017-0.167-2.196-0.237-3.024-0.237c-3.187,0-5.074,0.944-6.327,2.149c-1.842,1.795-2.338,4.132-2.338,5.479   c0,1.912,0.496,4.202,2.528,5.949c1.628,1.416,3.729,2.148,6.848,2.148c1.344,0,2.902-0.117,3.755-0.447   c0.354-0.143,0.401-0.213,0.519-0.59c0.213-0.686,0.495-2.434,0.495-2.574C370.437,79.375,370.342,79.233,370.249,79.233"/>
	<path clip-path="url(#SVGID_2_)" d="M386.279,67.804c0-0.07-0.117-0.117-0.258-0.117c-0.401,0-1.892,0.047-2.032,0.047   c-0.165,0-0.897-0.047-1.439-0.047c-0.213,0-0.333,0.047-0.333,0.117c0,0.096,0.12,0.19,0.309,0.235   c0.235,0.071,0.33,0.237,0.33,0.521c0,0.26-0.095,0.591-0.355,1.039c-0.376,0.661-2.975,4.958-3.397,5.809l-3.779-6.257   c-0.142-0.261-0.282-0.498-0.282-0.78c0-0.166,0.094-0.261,0.26-0.333c0.189-0.069,0.33-0.139,0.33-0.211   c0-0.094-0.048-0.141-0.283-0.141c-0.804,0-1.653,0.047-1.796,0.047c-0.094,0-1.654-0.047-2.055-0.047   c-0.189,0-0.259,0.047-0.259,0.141c0,0.096,0.095,0.191,0.212,0.191c0.167,0,0.567,0.091,0.874,0.281   c0.378,0.26,0.873,0.709,1.37,1.463c0.708,1.063,3.518,5.526,3.683,5.834c0.309,0.564,0.449,0.967,0.449,2.055v1.723   c0,0.33,0,1.182-0.047,2.007c-0.047,0.591-0.188,0.968-0.613,1.063c-0.19,0.047-0.428,0.094-0.615,0.094   c-0.117,0-0.165,0.096-0.165,0.168c0,0.116,0.094,0.163,0.331,0.163c0.612,0,1.936-0.069,2.03-0.069   c0.118,0,1.464,0.069,2.621,0.069c0.212,0,0.332-0.069,0.332-0.163c0-0.072-0.047-0.168-0.167-0.168   c-0.189,0-0.66-0.047-0.945-0.094c-0.613-0.096-0.754-0.473-0.802-1.063c-0.07-0.825-0.07-1.677-0.07-2.007v-1.723   c0-0.661-0.095-1.299,0.259-2.008c0.426-0.852,3.354-5.572,4.039-6.378c0.448-0.541,0.638-0.753,1.038-0.991   c0.331-0.188,0.732-0.257,0.97-0.257C386.186,68.019,386.279,67.899,386.279,67.804"/>
	<path clip-path="url(#SVGID_2_)" d="M391.827,67.687c-0.637,0-1.936,0.047-2.031,0.047c-0.117,0-1.464-0.047-2.407-0.047   c-0.236,0-0.332,0.047-0.332,0.166c0,0.071,0.096,0.167,0.167,0.167c0.188,0,0.543,0.02,0.708,0.045   c0.685,0.094,0.804,0.426,0.852,1.111c0.046,0.637,0.046,1.204,0.046,4.322v5.808c0,5.172-0.638,6.211-1.984,7.559   c-0.188,0.164-0.473,0.401-0.732,0.543c-0.188,0.116-0.259,0.211-0.259,0.329c0,0.094,0.096,0.119,0.143,0.119   c0.07,0,0.116-0.025,0.14-0.025c0.214-0.117,0.568-0.328,0.852-0.517c1.676-1.111,2.597-2.055,3.046-3.072   c0.615-1.416,0.684-2.667,0.684-5.928v-4.815c0-3.118,0-3.685,0.025-4.322c0.048-0.709,0.165-0.992,0.732-1.111   c0.235-0.045,0.376-0.045,0.518-0.045c0.072,0,0.167-0.095,0.167-0.167C392.159,67.733,392.064,67.687,391.827,67.687"/>
	<path clip-path="url(#SVGID_2_)" d="M410.672,67.687c-0.85,0-1.534,0.047-1.771,0.047c-0.236,0-1.228-0.047-2.174-0.047   c-0.234,0-0.4,0.023-0.4,0.141c0,0.072,0.025,0.191,0.166,0.191c0.165,0,0.638,0.02,1.015,0.091   c0.639,0.12,0.756,0.568,0.779,1.867l0.213,10.06c-0.638-0.662-2.857-3.046-4.912-5.172c-3.211-3.307-6.234-6.518-6.565-6.847   c-0.211-0.215-0.566-0.616-0.801-0.616c-0.166,0-0.285,0.214-0.285,1.015v11.501c0,1.817-0.071,2.361-0.589,2.503   c-0.308,0.094-0.686,0.117-0.853,0.117c-0.093,0-0.165,0.071-0.165,0.168c0,0.139,0.119,0.163,0.332,0.163   c0.943,0,1.819-0.069,2.007-0.069c0.188,0,1.016,0.069,2.197,0.069c0.235,0,0.376-0.047,0.376-0.163   c0-0.097-0.07-0.168-0.165-0.168c-0.188,0-0.66-0.023-1.038-0.117c-0.567-0.142-0.756-0.638-0.804-2.292L397,70.663   c0.637,0.708,2.974,3.164,5.383,5.691c2.195,2.291,5.196,5.242,5.406,5.431c1.159,1.062,1.37,1.228,1.583,1.228   c0.143,0,0.167-0.119,0.167-1.439l0.047-11.761c0-1.205,0.047-1.604,0.731-1.748c0.237-0.045,0.401-0.045,0.495-0.045   c0.143,0,0.236-0.119,0.236-0.191C411.049,67.709,410.885,67.687,410.672,67.687"/>
	<path clip-path="url(#SVGID_2_)" d="M426.35,67.687c-0.402,0-1.89,0.047-2.031,0.047c-0.164,0-0.896-0.047-1.44-0.047   c-0.214,0-0.33,0.047-0.33,0.117c0,0.096,0.116,0.19,0.307,0.235c0.236,0.071,0.332,0.237,0.332,0.521   c0,0.26-0.096,0.591-0.355,1.039c-0.378,0.661-2.976,4.959-3.401,5.809l-3.778-6.257c-0.142-0.261-0.283-0.498-0.283-0.78   c0-0.165,0.096-0.261,0.261-0.333c0.188-0.069,0.33-0.139,0.33-0.211c0-0.094-0.048-0.141-0.284-0.141   c-0.803,0-1.651,0.047-1.794,0.047c-0.095,0-1.653-0.047-2.054-0.047c-0.19,0-0.261,0.047-0.261,0.141   c0,0.096,0.094,0.191,0.213,0.191c0.164,0,0.565,0.091,0.875,0.281c0.375,0.26,0.872,0.709,1.369,1.463   c0.708,1.063,3.518,5.526,3.684,5.834c0.306,0.564,0.448,0.967,0.448,2.055v1.723c0,0.33,0,1.182-0.048,2.007   c-0.048,0.591-0.188,0.968-0.613,1.063c-0.188,0.047-0.426,0.094-0.613,0.094c-0.119,0-0.165,0.096-0.165,0.168   c0,0.116,0.094,0.163,0.33,0.163c0.612,0,1.936-0.069,2.031-0.069c0.115,0,1.463,0.069,2.619,0.069   c0.214,0,0.332-0.069,0.332-0.163c0-0.072-0.049-0.168-0.165-0.168c-0.19,0-0.663-0.047-0.945-0.094   c-0.614-0.096-0.756-0.473-0.804-1.063c-0.068-0.825-0.068-1.677-0.068-2.007v-1.723c0-0.661-0.096-1.299,0.258-2.008   c0.426-0.852,3.354-5.572,4.038-6.378c0.45-0.541,0.638-0.753,1.039-0.991c0.331-0.188,0.732-0.257,0.969-0.257   c0.165,0,0.26-0.119,0.26-0.215C426.609,67.733,426.49,67.687,426.35,67.687"/>
	<path clip-path="url(#SVGID_2_)" d="M440.541,79.233c-0.142,0-0.167,0.07-0.214,0.284c-0.07,0.377-0.354,1.227-0.803,1.677   c-0.826,0.825-1.865,0.944-3.424,0.944c-4.439,0-7.486-3.426-7.486-7.273c0-2.031,0.331-3.825,1.867-5.243   c0.731-0.686,2.005-1.392,4.676-1.392c1.841,0,3.353,0.496,4.084,1.11c0.543,0.423,0.874,1.228,0.874,2.007   c0,0.283,0.023,0.425,0.165,0.425c0.119,0,0.212-0.119,0.236-0.425c0.024-0.285,0.024-1.394,0.048-2.056   c0.046-0.731,0.093-0.967,0.093-1.134c0-0.119-0.047-0.21-0.258-0.21c-0.686-0.024-1.348-0.166-2.127-0.308   c-1.015-0.167-2.196-0.237-3.021-0.237c-3.188,0-5.076,0.944-6.329,2.149c-1.842,1.795-2.338,4.132-2.338,5.479   c0,1.912,0.496,4.202,2.527,5.949c1.629,1.416,3.73,2.148,6.848,2.148c1.346,0,2.904-0.117,3.755-0.447   c0.354-0.143,0.401-0.213,0.519-0.59c0.214-0.686,0.496-2.434,0.496-2.574C440.729,79.375,440.635,79.233,440.541,79.233"/>
	<path clip-path="url(#SVGID_2_)" d="M459.901,82.539c-0.165,0-0.638-0.047-0.92-0.094c-0.638-0.096-0.686-0.473-0.757-1.063   c-0.094-0.825-0.116-2.409-0.116-4.344v-3.542c0-3.118,0-3.685,0.047-4.322c0.046-0.709,0.164-0.992,0.707-1.111   c0.261-0.045,0.378-0.045,0.52-0.045c0.096,0,0.189-0.095,0.189-0.167c0-0.119-0.119-0.166-0.354-0.166   c-0.612,0-1.936,0.047-2.055,0.047c-0.094,0-1.439-0.047-2.361-0.047c-0.236,0-0.33,0.047-0.33,0.166   c0,0.071,0.07,0.167,0.166,0.167c0.188,0,0.542,0.02,0.707,0.045c0.686,0.094,0.779,0.426,0.827,1.111   c0.024,0.637,0.047,1.251,0.047,4.369v0.424c0,0.119-0.047,0.119-0.118,0.119h-8.665c-0.071,0-0.12,0-0.12-0.119v-0.424   c0-3.117,0-3.732,0.024-4.369c0.049-0.709,0.165-0.992,0.732-1.111c0.236-0.045,0.376-0.045,0.52-0.045   c0.071,0,0.167-0.095,0.167-0.167c0-0.119-0.096-0.166-0.332-0.166c-0.639,0-1.96,0.047-2.055,0.047   c-0.117,0-1.441-0.047-2.386-0.047c-0.235,0-0.331,0.047-0.331,0.166c0,0.071,0.096,0.167,0.166,0.167   c0.189,0,0.543,0.02,0.708,0.045c0.685,0.094,0.804,0.426,0.852,1.111c0.047,0.637,0.047,1.204,0.047,4.322v3.542   c0,1.935,0,3.519-0.117,4.344c-0.097,0.591-0.145,0.968-0.546,1.063c-0.188,0.047-0.448,0.094-0.638,0.094   c-0.116,0-0.164,0.096-0.164,0.168c0,0.116,0.118,0.163,0.33,0.163c0.638,0,1.962-0.069,2.079-0.069   c0.095,0,1.416,0.069,2.574,0.069c0.234,0,0.329-0.069,0.329-0.163c0-0.072-0.046-0.168-0.165-0.168   c-0.188,0-0.637-0.047-0.942-0.094c-0.615-0.096-0.686-0.473-0.758-1.063c-0.095-0.825-0.095-2.36-0.095-4.297v-2.007   c0-0.096,0.049-0.119,0.12-0.119h8.665c0.071,0,0.118,0.023,0.118,0.119v2.007c0,1.937,0,3.446-0.095,4.273   c-0.069,0.589-0.143,0.991-0.565,1.087c-0.188,0.047-0.425,0.094-0.614,0.094c-0.118,0-0.165,0.096-0.165,0.168   c0,0.116,0.094,0.163,0.33,0.163c0.614,0,1.96-0.069,2.054-0.069c0.119,0,1.442,0.069,2.574,0.069c0.236,0,0.354-0.069,0.354-0.163   C460.09,82.635,460.043,82.539,459.901,82.539"/>
</g>
</svg>