<svg xmlns="http://www.w3.org/2000/svg" id="Layer_1" data-name="Layer 1" viewBox="0 0 621.92 224.28"><defs><style>.cls-1{fill:#432f7d;}</style></defs><path class="cls-1" d="M115.14,83.44l-14.82,6.71c-1.9-4.18-5.2-9.63-12.93-9.63-6.08,0-9.62,3.68-9.62,8.49,0,14.69,38.51,12.54,38.51,40,0,15.58-11.15,27-29.64,27-19,0-26.86-13.3-29.39-20.52l15.07-7.35c2.41,5.83,7.35,11.28,15.33,11.28,6.58,0,10.51-3.42,10.51-9.12,0-15.21-38.26-12.67-38.26-41,0-15,10.9-25.21,27.88-25.21C105.64,64.05,113,77,115.14,83.44Z"/><path class="cls-1" d="M141.86,111.94c6.72,0,11.91,2,14.32,3.67v-4.3c0-5.83-4.31-9.76-12-9.76a38.93,38.93,0,0,0-17.61,4.69L120,94.33A49.35,49.35,0,0,1,146,86.48c21.28,0,27.62,11.14,27.62,26v41.93H158.2l-1.14-4.31c-3.42,3.67-8.48,6-16.09,6-13.42,0-24.82-8.23-24.82-22.17C116.15,120.81,126.41,111.94,141.86,111.94Zm3.3,30.53c6.58,0,11.4-3.55,11.4-9.12,0-5.83-4.82-9.25-11.53-9.25s-11.4,3.8-11.4,9.25S138.57,142.47,145.16,142.47Z"/><path class="cls-1" d="M182,102.31h-7.1V88.12H182V85.71c0-17.22,11.52-22.92,24.45-22.92,2.53,0,4.43.12,5.7.25V77.73c-.38,0-1.9-.25-3.42-.25-6.08,0-9.25,2.79-9.25,8.62v2H211v14.19H199.51v52.07H182Z"/><path class="cls-1" d="M240.19,86.48c20.53,0,32.18,13.68,32.18,35.34a37.11,37.11,0,0,1-.13,3.8H225.63c.37,8.87,7.47,15.2,17.22,15.2a19.34,19.34,0,0,0,16.09-8.11l11.53,8.74c-2.53,4.69-11.4,14.57-27.87,14.57-21.28,0-34.84-14.69-34.84-34.58S221.32,86.48,240.19,86.48Zm14.45,27.74c-.39-8.11-6.21-13.43-14.19-13.43-8.24,0-13.56,5.83-14.32,13.43Z"/><path class="cls-1" d="M278.09,65.7h10.26v40.79L323.7,65.7h12.41l-37.24,42.44,38.76,46.24H325.09l-36.74-44.6v44.6H278.09Z"/><path class="cls-1" d="M345.05,64.69a6.9,6.9,0,1,1-6.84,6.84A6.83,6.83,0,0,1,345.05,64.69ZM340.11,88.5h10v65.88h-10Z"/><path class="cls-1" d="M419.84,154.38h-9.76V144a27,27,0,0,1-22.8,12c-18.87,0-32.18-14.31-32.18-34.45s12.67-34.72,31.42-34.72c13.68,0,21.28,8.87,23.18,12.29V62.79h10.14ZM387.66,96c-12.92,0-22.29,10.64-22.29,25.71,0,15.33,9.75,25.34,22.42,25.34,13.81,0,22.29-11.53,22.29-25.34C410.08,105.35,400,96,387.66,96Z"/><path class="cls-1" d="M490.2,154.38h-9.75V144a27,27,0,0,1-22.8,12c-18.88,0-32.18-14.31-32.18-34.45s12.67-34.72,31.42-34.72c13.68,0,21.28,8.87,23.18,12.29V62.79H490.2ZM458,96c-12.92,0-22.3,10.64-22.3,25.71,0,15.33,9.76,25.34,22.42,25.34,13.81,0,22.3-11.53,22.3-25.34C480.45,105.35,470.31,96,458,96Z"/><path class="cls-1" d="M504.81,99.18c2.27,4.37,7.47,12.95,16.84,18.3a33.89,33.89,0,0,0,23.28,3.88c0-.87-.54-20.21-13.23-27.72C523.33,88.68,513,90.83,504.81,99.18Z"/><path class="cls-1" d="M523.71,95.9a40.49,40.49,0,0,0,14.9,15.74,38.38,38.38,0,0,0,21.58,5.16c0-.68.42-15.7-11.1-22.7C541.49,89.48,531.7,90.18,523.71,95.9Z"/><path class="cls-1" d="M521.31,140.4c.63,5.14,5.44,8.36,9.61,7.39a8.17,8.17,0,0,0,5.92-8.37Z"/><rect class="cls-1" x="537.12" y="128" width="3.98" height="5.49" rx="1.8"/><rect class="cls-1" x="517.77" y="128" width="3.98" height="5.49" rx="1.8"/><path class="cls-1" d="M543.21,155.89a3.85,3.85,0,0,1-1.57-7.37,29.05,29.05,0,1,0-24.94-.62,3.85,3.85,0,0,1-3.48,6.86,36.74,36.74,0,1,1,31.56.79A3.83,3.83,0,0,1,543.21,155.89Z"/><path class="cls-1" d="M511.39,98.11a33.19,33.19,0,0,1-3.15,14.76,34.41,34.41,0,0,1-9.91,12.46,18,18,0,0,1-1-16.56A18.22,18.22,0,0,1,511.39,98.11Z"/></svg>