<svg xmlns="http://www.w3.org/2000/svg" width="154.888" height="54"><defs><clipPath id="a"><path fill="none" d="M0 0h154.888v54H0z"/></clipPath><style>.c{fill:#1a1917}</style></defs><g clip-path="url(#a)"><path class="c" d="M74.094 24.783a3.594 3.594 0 001.54-1.386 4.393 4.393 0 00.577-2.353v-6.473h-1.942v6.489a2.469 2.469 0 01-.607 1.828 2.592 2.592 0 01-3.315 0 2.486 2.486 0 01-.6-1.828v-6.489h-1.942v6.474a4.535 4.535 0 00.554 2.353 3.483 3.483 0 001.494 1.386 4.763 4.763 0 002.109.457 4.91 4.91 0 002.132-.457m6 .277v-3.837a2.26 2.26 0 01.525-1.587 1.743 1.743 0 011.343-.569 1.458 1.458 0 011.229.509 2.359 2.359 0 01.394 1.469v4.016h1.943v-4.2a3.719 3.719 0 00-.774-2.548 2.755 2.755 0 00-2.17-.869 3 3 0 00-1.555.39 2.625 2.625 0 00-1.009 1.049l-.152-1.259h-1.715v7.433zm9.2-8.9a1.033 1.033 0 00.342-.794 1.011 1.011 0 00-.342-.787 1.393 1.393 0 00-1.745 0 1.011 1.011 0 00-.342.787 1.033 1.033 0 00.342.794 1.367 1.367 0 001.745 0m.1 1.469h-1.939v7.433h1.942zm5.523 7.433l1.608-5.56 1.608 5.56h2.018l2.216-7.433h-1.922l-1.32 5.35-1.518-5.35h-2.154l-1.518 5.35-1.3-5.35h-1.927l2.2 7.433zM108.616 24.911a3.473 3.473 0 001.214-.907 3.527 3.527 0 00.706-1.281h-1.973a1.629 1.629 0 01-.6.682 1.78 1.78 0 01-.994.262 1.946 1.946 0 01-1.343-.494 1.924 1.924 0 01-.614-1.364h5.721q.015-.195.023-.374c0-.12.008-.235.008-.345a3.647 3.647 0 00-.478-1.851 3.469 3.469 0 00-1.327-1.311 3.917 3.917 0 00-1.958-.479 4.052 4.052 0 00-2.056.5 3.555 3.555 0 00-1.365 1.4 4.2 4.2 0 00-.493 2.053 3.95 3.95 0 00.5 2.008 3.494 3.494 0 001.381 1.349 4.152 4.152 0 002.018.48 3.881 3.881 0 001.631-.33m-.372-5.47a1.609 1.609 0 01.546 1.169h-3.748a1.836 1.836 0 01.7-1.206 2.086 2.086 0 011.259-.4 1.83 1.83 0 011.244.435m6.1 5.619v-3.382a2.651 2.651 0 01.28-1.334 1.528 1.528 0 01.782-.674 3.122 3.122 0 011.138-.195h.546v-2.023a3.066 3.066 0 00-2.777 1.573l-.182-1.394h-1.73v7.433zm8.861-.135a2.51 2.51 0 001.093-.869 2.068 2.068 0 00.364-1.244 1.735 1.735 0 00-.394-1.221 2.44 2.44 0 00-1.055-.644q-.66-.217-1.449-.4a6.5 6.5 0 01-1.168-.359q-.441-.195-.44-.525a.625.625 0 01.3-.525 1.444 1.444 0 01.843-.21q1.092 0 1.259.824h1.836a2.485 2.485 0 00-.949-1.693 3.4 3.4 0 00-2.132-.614 3.362 3.362 0 00-2.238.674 2.1 2.1 0 00-.8 1.663 1.537 1.537 0 00.258.907 1.991 1.991 0 00.675.6 4.551 4.551 0 00.918.382q.5.15.986.255a7.624 7.624 0 011.184.337.644.644 0 01.425.652.756.756 0 01-.3.585 1.411 1.411 0 01-.933.255 1.665 1.665 0 01-1.039-.307 1.242 1.242 0 01-.493-.742h-1.957a2.562 2.562 0 00.546 1.319 3.037 3.037 0 001.214.892 4.474 4.474 0 001.76.322 4.151 4.151 0 001.684-.315M128.987 28.357l4.78-10.73h-2.064l-2.2 5.23-2.109-5.23h-2.11l2.929 6.938h.455l-1.744 3.792zm10.728-3.3v-1.63h-.941a1.257 1.257 0 01-.812-.2.948.948 0 01-.235-.742v-3.254h2.033v-1.6h-2.036v-1.997h-1.715l-.228 1.993h-1.29v1.6h1.29v3.237a2.459 2.459 0 00.713 2.023 2.951 2.951 0 001.9.569zM146.52 24.91a3.471 3.471 0 001.214-.907 3.513 3.513 0 00.706-1.281h-1.978a1.629 1.629 0 01-.6.682 1.778 1.778 0 01-.994.262 1.945 1.945 0 01-1.343-.495 1.924 1.924 0 01-.615-1.364h5.721q.015-.195.023-.375t.008-.344a3.65 3.65 0 00-.478-1.851 3.47 3.47 0 00-1.328-1.311 3.916 3.916 0 00-1.958-.479 4.054 4.054 0 00-2.056.5 3.552 3.552 0 00-1.365 1.4 4.2 4.2 0 00-.493 2.053 3.951 3.951 0 00.5 2.008 3.489 3.489 0 001.381 1.349 4.15 4.15 0 002.018.479 3.882 3.882 0 001.631-.33m-.372-5.47a1.608 1.608 0 01.546 1.169h-3.748a1.835 1.835 0 01.7-1.206 2.086 2.086 0 011.259-.4 1.831 1.831 0 011.244.435m8.694 5.62v-1.627h-.941a1.257 1.257 0 01-.812-.2.947.947 0 01-.235-.742v-3.254h2.033v-1.6h-2.033v-1.997h-1.715l-.227 1.993h-1.29v1.6h1.29v3.237a2.459 2.459 0 00.713 2.023 2.951 2.951 0 001.9.569zM73.541 39.245a3.044 3.044 0 001.259-1.131 2.907 2.907 0 00.425-1.529 2.693 2.693 0 00-.395-1.521 2.943 2.943 0 00-1.047-.951 9.043 9.043 0 00-1.441-.629q-.744-.24-1.32-.45a2.689 2.689 0 01-.91-.517 1.074 1.074 0 01-.334-.832 1.1 1.1 0 01.432-.937 1.674 1.674 0 011.07-.307 1.549 1.549 0 011.161.427 1.424 1.424 0 01.432.982h2.08a2.943 2.943 0 00-.493-1.6 3.066 3.066 0 00-1.275-1.049 4.864 4.864 0 00-3.725-.007 3.04 3.04 0 00-1.267 1.034 2.648 2.648 0 00-.448 1.6 2.4 2.4 0 00.645 1.753 4.7 4.7 0 001.874 1.079l1.426.479a3.041 3.041 0 011.07.585 1.278 1.278 0 01.4 1 1.2 1.2 0 01-.455.981 2.225 2.225 0 01-2.633-.135 1.779 1.779 0 01-.539-1.236h-2.048a3.165 3.165 0 00.531 1.806 3.309 3.309 0 001.411 1.139 5.05 5.05 0 002.064.4 4.462 4.462 0 002.049-.427m7.829.247l2.17-7.778 2.114 7.771h2.3l2.883-10.49h-2.094l-1.912 8.347-2.177-8.347h-2.139l-2.246 8.347-1.915-8.347h-2.079l2.807 10.49zm12.822 0v-4.061h1.988a4.555 4.555 0 002.14-.442 2.884 2.884 0 001.229-1.169 3.473 3.473 0 00-.015-3.244 2.833 2.833 0 00-1.244-1.154 4.682 4.682 0 00-2.109-.42h-3.927v10.49zm0-8.931h1.866a2.031 2.031 0 011.464.442 1.639 1.639 0 01.448 1.221 1.619 1.619 0 01-.448 1.207 2.031 2.031 0 01-1.464.442h-1.864zm12.943 8.684a3.04 3.04 0 001.259-1.131 2.91 2.91 0 00.425-1.529 2.691 2.691 0 00-.395-1.521 2.944 2.944 0 00-1.047-.951 9.047 9.047 0 00-1.441-.629q-.744-.24-1.32-.45a2.684 2.684 0 01-.91-.517 1.074 1.074 0 01-.334-.832 1.1 1.1 0 01.432-.937 1.672 1.672 0 011.07-.307 1.55 1.55 0 011.161.427 1.426 1.426 0 01.432.982h2.079a2.945 2.945 0 00-.493-1.6 3.064 3.064 0 00-1.274-1.049 4.863 4.863 0 00-3.725-.007 3.042 3.042 0 00-1.267 1.034 2.65 2.65 0 00-.448 1.6 2.4 2.4 0 00.645 1.753 4.7 4.7 0 001.874 1.079l1.426.479a3.04 3.04 0 011.07.585 1.279 1.279 0 01.4 1 1.2 1.2 0 01-.455.981 2.225 2.225 0 01-2.633-.135 1.778 1.778 0 01-.539-1.236h-2.048a3.167 3.167 0 00.531 1.806 3.31 3.31 0 001.411 1.139 5.049 5.049 0 002.064.4 4.461 4.461 0 002.048-.427M13.751 25.678a13.3 13.3 0 011.545-5.035 13.443 13.443 0 011.488-2.2 13.64 13.64 0 011.893-1.87L9.995 6.129a27.333 27.333 0 00-3.789 3.742 27.021 27.021 0 00-2.98 4.4A26.63 26.63 0 00.132 24.353zM15.296 33.356a13.308 13.308 0 01-1.545-5.035L.132 29.646a26.641 26.641 0 003.09 10.082 27.055 27.055 0 002.98 4.4l10.579-8.574a13.5 13.5 0 01-1.488-2.2M19.403 52.838a27.506 27.506 0 005.258 1.029l1.342-13.448a13.752 13.752 0 01-2.626-.514zM37.892 35.554l10.579 8.574a27.007 27.007 0 002.98-4.4l-12.07-6.371a13.464 13.464 0 01-1.488 2.2M40.405 23.085l13.1-3.924a26.616 26.616 0 00-2.052-4.89l-12.07 6.372a13.3 13.3 0 011.025 2.442M24.955 13.718L22.731.39q-.729.122-1.443.283l3.107 13.154c.186-.04.373-.076.562-.109M22.377 14.431L17.559 1.786q-.688.26-1.358.557l5.646 12.3c.174-.076.351-.148.53-.216M13.678 27c0-.1.005-.189.008-.283L.019 26.274C.013 26.516 0 26.757 0 27s.012.484.019.726l13.667-.443c0-.095-.008-.188-.008-.283M26.604.018l.449 13.5c.1 0 .19-.007.286-.007s.191.005.287.007l.45-13.5C27.829.012 27.586 0 27.339 0s-.49.012-.735.018M38.852 19.745l11.615-7.132q-.393-.614-.819-1.206l-11.116 7.868q.164.232.319.47M40.787 24.646l13.495-2.2q-.123-.72-.286-1.425L40.677 24.09c.041.184.077.369.11.555M33.389.67q-.715-.16-1.442-.282L29.72 13.716q.284.049.562.11zM37.196 17.665l9.981-9.231q-.506-.527-1.04-1.027l-9.347 9.858c.138.13.273.264.405.4M32.83 14.647l5.646-12.3q-.671-.3-1.359-.557L32.3 14.434c.178.069.355.141.53.216M35.163 15.947l7.966-10.978q-.6-.42-1.222-.808l-7.22 11.468c.161.1.32.206.476.314M19.988 15.629L12.769 4.158q-.623.388-1.222.808l7.967 10.981q.235-.162.476-.314M36.791 36.735l9.351 9.858q.535-.5 1.04-1.028l-9.981-9.232c-.132.137-.268.27-.405.4M32.3 39.57l4.817 12.644q.689-.26 1.358-.557l-5.646-12.3a13.06 13.06 0 01-.53.217M29.722 40.283l2.227 13.328q.728-.123 1.443-.282l-3.103-13.156q-.279.06-.563.11M54.659 26.274l-13.667.443c0 .095.008.188.008.283s-.005.188-.008.283l13.667.443c.006-.242.018-.482.018-.726s-.012-.485-.018-.726M40.677 29.909l13.32 3.068q.162-.706.286-1.425l-13.5-2.2c-.033.187-.07.372-.11.556M39.847 32.424L52.305 38q.3-.662.564-1.341l-12.8-4.758c-.07.176-.143.351-.219.524M34.687 38.37l7.222 11.472q.622-.389 1.221-.809l-7.966-10.978q-.234.163-.476.314M17.482 36.334L7.5 45.566q.506.527 1.04 1.027l9.347-9.858q-.206-.2-.405-.4M19.514 38.056l-7.967 10.978q.6.42 1.222.809l7.219-11.473q-.242-.152-.476-.314M21.847 39.353l-5.646 12.3q.671.3 1.359.557l4.817-12.644q-.268-.1-.53-.216M27.339 40.49c-.1 0-.191-.006-.286-.007l-.449 13.5c.245.006.488.018.735.018s.49-.013.735-.018l-.449-13.5c-.1 0-.19.007-.286.007"/></g></svg>